Coordinates
version=1
nRows=19
nColumns=36
inDegrees=yes

Units are S.I. units (second, meters, Newtons, ...)
If the header above contains a line with 'inDegrees', this indicates whether rotational values are in degrees (yes) or radians (no).

endheader
time	pelvis_tilt	pelvis_list	pelvis_rotation	pelvis_tx	pelvis_ty	pelvis_tz	hip_flexion_r	hip_adduction_r	hip_rotation_r	knee_angle_r	knee_angle_r_beta	ankle_angle_r	subtalar_angle_r	mtp_angle_r	hip_flexion_l	hip_adduction_l	hip_rotation_l	knee_angle_l	knee_angle_l_beta	ankle_angle_l	subtalar_angle_l	mtp_angle_l	lumbar_extension	lumbar_bending	lumbar_rotation	arm_flex_r	arm_add_r	arm_rot_r	elbow_flex_r	pro_sup_r	arm_flex_l	arm_add_l	arm_rot_l	elbow_flex_l	pro_sup_l
      0.00000000	      6.16245477	     -5.76045000	    -20.00362192	      1.17586653	      0.95921098	      0.13154025	    -16.83142283	     -2.10163170	     -6.19964570	      0.10823880	      0.00188912	     16.01320442	      5.55048424	     -6.15089180	    -13.92620754	    -11.01707967	     -3.63791613	      0.11358381	      0.00198241	     15.34021337	      1.94396645	     -6.15089180	     -3.07779089	      4.08394776	     -1.17179558	     28.28679466	     -0.60841386	     54.71969856	    100.58226724	     66.40821211	     24.76413778	      3.89838959	     70.38526429	    106.99940690	     86.00819388
      0.01666670	      6.01721207	     -6.32350107	    -21.34763713	      1.17755211	      0.95873468	      0.13390200	    -16.62087089	     -1.92252724	     -5.87274964	      0.11499985	      0.00200713	     15.72455530	      5.16553056	     -6.54747241	    -14.63211132	    -11.57966757	     -2.30526530	      0.10991500	      0.00191838	     15.79930701	      0.77014009	     -6.54747241	     -3.77179626	      4.67531240	      0.18619808	     28.24878545	     -3.82777042	     57.12561074	    105.02948714	     74.84357900	     24.97672962	      1.38137363	     69.29438048	    112.80489585	     97.35260576
      0.03333330	      6.46016671	     -7.31428983	    -21.96227333	      1.17934884	      0.95823949	      0.13479570	    -17.48368137	     -1.18834380	     -4.56178439	      0.12444288	      0.00217194	     15.70030920	      4.52949775	     -6.83178033	    -15.98851264	    -12.26946396	     -1.87280398	      0.11061512	      0.00193060	     15.95230942	      1.25233690	     -6.83178033	     -4.41344917	      5.39882528	     -0.39083899	     28.85900300	     -3.24379232	     57.09940578	    105.74635772	     82.18509368	     25.03080528	      1.29616732	     67.42552984	    113.34427620	    103.56660344
      0.05000000	      6.56250081	     -7.46860396	    -21.89268871	      1.17926814	      0.95977459	      0.13577244	    -17.75706281	     -1.08477401	     -4.70023504	      0.13034424	      0.00227494	     16.16631678	      4.86422596	     -7.07838512	    -16.25465456	    -12.59388542	     -1.53401147	      0.11730772	      0.00204741	     15.74510753	      1.27051930	     -7.07838512	     -4.47562425	      5.23377029	     -1.29088040	     29.32688987	     -2.60711477	     57.72196113	    105.67735632	     85.97490930	     25.24151760	      1.28379696	     66.34082624	    113.29482140	    103.30471947
      0.06666670	      6.99113539	     -7.59029232	    -21.71806074	      1.17965588	      0.95958656	      0.13568523	    -18.35447396	     -1.08691533	     -4.86796019	      0.13531684	      0.00236172	     16.66260011	      5.01245524	     -7.15603167	    -16.76081333	    -12.74205996	     -1.04556400	      0.12333591	      0.00215262	     15.70856210	      1.08952082	     -7.15603167	     -5.02764108	      5.01687052	     -1.84313791	     29.69605239	     -2.10783944	     58.34394474	    105.51384638	     85.84606813	     25.77550931	      1.40951024	     65.94142358	    113.23476567	    100.85711654
      0.08333330	      7.42319775	     -7.39229357	    -21.52570287	      1.18410752	      0.95955383	      0.13266556	    -18.83210402	     -1.49069116	     -5.09996907	      0.13973890	      0.00243890	     16.99007372	      5.03745356	     -7.26217357	    -17.14549511	    -12.47935924	     -0.29502919	      0.13012024	      0.00227103	     15.69754782	      0.76372681	     -7.26217357	     -5.31780586	      4.67270190	     -2.56604411	     29.93014259	     -1.71720911	     58.44881866	    105.09757026	     88.64427264	     25.87549621	      1.55370571	     64.99056334	    113.37920295	    100.59825442
      0.10000000	      7.74378569	     -7.24845745	    -21.32415648	      1.17955718	      0.95916525	      0.13616486	    -19.17200078	     -1.69736650	     -5.31212915	      0.14166502	      0.00247252	     17.31707274	      4.99756431	     -7.30700296	    -17.35420936	    -12.38377285	      0.47168990	      0.13873423	      0.00242137	     15.55140179	      0.26087693	     -7.30700296	     -5.67647239	      4.29469208	     -2.73924786	     29.95713893	     -1.31419471	     58.29313040	    104.70502522	     86.18171549	     26.26225426	      1.58885714	     64.83989972	    113.69450250	     96.49125174
      0.11666670	      7.97128850	     -7.11090485	    -21.36191600	      1.17919549	      0.95892228	      0.13699342	    -19.38751749	     -1.92730518	     -5.06831777	      0.14403200	      0.00251383	     17.45242084	      4.61143030	     -7.34981473	    -17.52451462	    -12.23840949	      0.61663368	      0.14455046	      0.00252288	     15.46706515	      0.22300905	     -7.34981473	     -5.98980739	      3.97057761	     -2.60652586	     29.95874010	     -0.97107629	     58.02445055	    104.41066335	     83.75816385	     26.43519135	      1.33891072	     64.57694323	    114.25256539	     92.66663595
      0.13333330	      8.28963086	     -6.99566345	    -21.21397421	      1.17935451	      0.95937965	      0.13682273	    -19.71677108	     -2.12303034	     -5.22223520	      0.14544080	      0.00253842	     17.62949533	      4.60422610	     -7.37155894	    -17.72102216	    -12.11211611	      0.91939998	      0.15067939	      0.00262985	     15.42622679	      0.40492782	     -7.37155894	     -6.48392708	      3.66203047	     -2.85785095	     30.25736535	     -0.65525132	     57.98036895	    104.00489421	     89.41370743	     26.70939535	      1.13214011	     64.24332658	    114.62183384	     97.86997596
      0.15000000	      8.58538677	     -6.88765629	    -21.09263633	      1.17870970	      0.95959282	      0.13722852	    -20.01194774	     -2.29606907	     -5.42288240	      0.14616335	      0.00255103	     17.79958397	      4.64482046	     -7.39153291	    -17.89183606	    -11.98063759	      1.29198013	      0.15582545	      0.00271967	     15.29063315	      0.25552172	     -7.39153291	     -6.92279542	      3.33172803	     -2.89178618	     30.35716218	     -0.47490030	     57.81002242	    103.90076959	     87.97591320	     27.13185146	      0.96807120	     64.55755110	    114.91680546	     95.73770249
      0.16666670	      8.94011028	     -6.87528517	    -21.02590614	      1.17838146	      0.95749581	      0.13724661	    -20.37918213	     -2.41909398	     -5.09093627	      0.14762523	      0.00257655	     17.74974836	      4.02075580	     -7.42187767	    -18.18044536	    -11.88451158	      1.69574814	      0.16057814	      0.00280262	     15.04793843	     -0.19169602	     -7.42187767	     -7.39448594	      3.11222941	     -2.86342534	     30.43232451	     -0.23565115	     57.35652418	    104.00338139	     84.23037236	     27.45468973	      1.09088464	     64.55310399	    115.29396208	     91.03784856
      0.18333330	      9.09992900	     -6.76292210	    -20.80277736	      1.17830564	      0.95989573	      0.13705062	    -20.55272542	     -2.51690121	     -5.66274542	      0.14913552	      0.00260291	     18.01344139	      4.51010427	     -7.45725625	    -18.19396372	    -11.80990525	      2.04639393	      0.16603090	      0.00289779	     14.92325166	     -0.23903382	     -7.45725625	     -7.68529972	      2.88419819	     -3.08590888	     30.37560660	     -0.17220589	     57.12330213	    103.89644468	     88.64332386	     27.59434227	      0.87752149	     64.74804168	    115.34402497	     96.32551304
      0.20000000	      9.28440554	     -6.69955983	    -20.63882921	      1.17848287	      0.96032174	      0.13663443	    -20.76061156	     -2.59819300	     -5.96201616	      0.15076827	      0.00263140	     18.13955700	      4.66665787	     -7.47113367	    -18.26799866	    -11.75222859	      2.34083316	      0.17202033	      0.00300232	     14.76712809	     -0.36126118	     -7.47113367	     -7.96179649	      2.67820364	     -3.01481666	     30.23312000	     -0.17706316	     56.76085246	    103.98250273	     88.19711672	     27.71312742	      0.96405709	     65.22630692	    115.19221739	     95.64270663
      0.21666670	      9.44843346	     -6.71451524	    -20.58870428	      1.17791282	      0.96035995	      0.13693224	    -20.95091259	     -2.63551379	     -5.98644184	      0.15363657	      0.00268146	     18.17455078	      4.56536615	     -7.47607915	    -18.39436904	    -11.74880642	      2.43919029	      0.17693472	      0.00308809	     14.63737073	     -0.41945181	     -7.47607915	     -8.27198594	      2.58495247	     -2.89526785	     30.30650336	     -0.10439483	     56.44549565	    103.70077864	     86.30410710	     27.74528310	      1.01307501	     65.48720812	    115.26465725	     93.13204782
      0.23333330	      9.54221559	     -6.76756687	    -20.52221910	      1.17339117	      0.96004164	      0.14003402	    -21.05694748	     -2.55683425	     -6.11820539	      0.15727996	      0.00274505	     18.26889151	      4.58355283	     -7.48702749	    -18.42235970	    -11.86241715	      2.50591456	      0.18524468	      0.00323313	     14.51915762	     -0.39897975	     -7.48702749	     -8.62626885	      2.45758333	     -2.81143293	     30.43483397	      0.06227827	     56.03896182	    103.39548043	     88.60533484	     28.01147624	      0.87711264	     65.59833236	    115.53357807	     95.83462389
      0.25000000	      9.51880187	     -6.75807026	    -20.54388757	      1.17777079	      0.96047339	      0.13684028	    -21.04143113	     -2.57108072	     -6.12866344	      0.15960496	      0.00278563	     18.29010889	      4.57218732	     -7.48703309	    -18.38178776	    -11.88090214	      2.50426689	      0.19802499	      0.00345619	     14.52057094	     -0.39933697	     -7.48703309	     -8.69389666	      2.44215730	     -2.81310636	     30.46774792	      0.05196436	     56.00656510	    103.38265676	     88.60306357	     28.02041332	      0.88038585	     65.58935699	    115.53203016	     95.83351482
      0.26666670	      9.76055763	     -6.79773646	    -20.46162081	      1.17795479	      0.96078491	      0.13637576	    -21.30941746	     -2.61092211	     -6.18738506	      0.16360680	      0.00285548	     18.18162325	      4.40229969	     -7.48804703	    -18.59640927	    -11.87542239	      2.74348578	      0.19641852	      0.00342815	     14.26132519	     -0.49877409	     -7.48804703	     -9.01435338	      2.28356416	     -2.78524801	     30.41692637	      0.04063530	     55.37730697	    103.37052544	     87.12237661	     27.96149635	      1.01739137	     65.35534110	    115.62173250	     94.14155635
      0.28333330	      9.99286779	     -6.84748651	    -20.39174175	      1.17702000	      0.95853111	      0.13685797	    -21.57833484	     -2.63799609	     -6.44722999	      0.16904641	      0.00295042	     18.32109794	      4.67541108	     -7.49016279	    -18.81906460	    -11.87594136	      2.88603421	      0.20398771	      0.00356026	     14.22323552	     -0.50731509	     -7.49016279	     -9.37183780	      2.16770727	     -2.71642490	     30.65960763	      0.02195226	     55.31632453	    103.69718435	     85.32538949	     28.34231204	      1.06006417	     65.44901856	    115.77886240	     91.83502567
      0.30000000	     10.06576589	     -6.87274323	    -20.37569343	      1.17785489	      0.96133178	      0.13623478	    -21.67220876	     -2.65382987	     -6.56196622	      0.17590850	      0.00307018	     18.28114907	      4.77995541	     -7.49403088	    -18.89873383	    -11.89377821	      2.96398640	      0.21166525	      0.00369426	     14.20709891	     -0.44626530	     -7.49403088	     -9.58308310	      2.15133793	     -2.66326698	     30.63491621	      0.01654221	     54.85388102	    103.53781549	     88.10009228	     28.29988655	      1.05942495	     65.36978596	    115.86623537	     94.93560691
